<svg viewBox="0 0 60 60" xmlns="http://www.w3.org/2000/svg">
    <path d="M59.0518 37.3011C55.045 53.3727 38.7671 63.1535 22.6936 59.1458C6.62688 55.1391 -3.15396 38.8601 0.85451 22.7899C4.85947 6.71652 21.1374 -3.06507 37.2059 0.941648C53.2782 4.94836 63.0585 21.2291 59.0513 37.3014L59.0516 37.3011H59.0518Z" fill="#F7931A"/>
    <path d="M43.2178 25.7185C43.8149 21.7262 40.7754 19.5801 36.6192 18.1485L37.9675 12.7405L34.6755 11.9202L33.3629 17.1858C32.4975 16.97 31.6087 16.7666 30.7254 16.565L32.0474 11.2646L28.7575 10.4443L27.4084 15.8506C26.6923 15.6875 25.9888 15.5263 25.3064 15.3565L25.3102 15.3395L20.7705 14.2059L19.8947 17.7219C19.8947 17.7219 22.3371 18.2818 22.2857 18.3163C23.6187 18.649 23.8598 19.5314 23.8198 20.2309L22.2839 26.3919C22.3757 26.4152 22.4948 26.4489 22.6262 26.5017C22.5163 26.4744 22.3995 26.4447 22.2782 26.4156L20.1254 35.0463C19.9625 35.4513 19.549 36.0591 18.6169 35.8283C18.6499 35.8761 16.2243 35.2312 16.2243 35.2312L14.5898 38.9994L18.8739 40.0674C19.6708 40.2673 20.4518 40.4764 21.2209 40.673L19.8587 46.143L23.1469 46.9633L24.4959 41.5514C25.3942 41.7952 26.266 42.0202 27.1194 42.2322L25.7749 47.6186L29.067 48.4389L30.4292 42.9792C36.0427 44.0416 40.2637 43.6132 42.0403 38.5358C43.472 34.4478 41.9691 32.0899 39.0158 30.5523C41.1668 30.0562 42.787 28.6414 43.219 25.719L43.218 25.7182L43.2178 25.7185ZM35.6964 36.2655C34.679 40.3535 27.7961 38.1437 25.5646 37.5895L27.3724 30.3427C29.6037 30.8998 36.7596 32.0022 35.6965 36.2655H35.6964ZM36.7145 25.6593C35.7864 29.3777 30.0577 27.4886 28.1994 27.0253L29.8384 20.4529C31.6967 20.9161 37.6812 21.7807 36.7148 25.6593H36.7145Z" fill="white"/>
</svg>
