<svg viewBox="0 0 58 60" xmlns="http://www.w3.org/2000/svg">
    <path d="M56.7031 18.0751C53.8906 15.4782 50 11.5126 46.8313 8.70006L46.6437 8.56881C46.3318 8.31829 45.98 8.12182 45.6031 7.98756C37.9625 6.56256 2.40313 -0.0843112 1.70938 6.37647e-05C1.51498 0.0272888 1.32917 0.0977687 1.16562 0.206314L0.9875 0.346939C0.768166 0.56969 0.601579 0.838792 0.5 1.13444L0.453125 1.25631V1.92194V2.02506C4.45625 13.1719 20.2625 49.6876 23.375 58.2563C23.5625 58.8376 23.9188 59.9438 24.5844 60.0001H24.7344C25.0906 60.0001 26.6094 57.9938 26.6094 57.9938C26.6094 57.9938 53.7594 25.0688 56.5063 21.5626C56.8618 21.1307 57.1757 20.6661 57.4438 20.1751C57.5122 19.7909 57.4799 19.3955 57.3501 19.0275C57.2203 18.6595 56.9974 18.3313 56.7031 18.0751ZM33.575 21.9094L45.1625 12.3001L51.9594 18.5626L33.575 21.9094ZM29.075 21.2813L9.125 4.93131L41.4031 10.8844L29.075 21.2813ZM30.875 25.5657L51.2938 22.2751L27.95 50.4001L30.875 25.5657ZM6.41562 6.56256L27.4062 24.3751L24.3687 50.4188L6.41562 6.56256Z" fill="#FF060A"/>
</svg>
