<svg viewBox="0 0 22 22" fill="none" xmlns="http://www.w3.org/2000/svg">
  <path fill-rule="evenodd" clip-rule="evenodd"
        d="M0 11C0 17.0751 4.92487 22 11 22C17.0751 22 22 17.0751 22 11C22 4.92487 17.0751 0 11 0C4.92487 0 0 4.92487 0 11ZM5.01312 10.3273C4.69104 10.0051 4.68369 9.4751 4.99669 9.14354C5.29992 8.82235 5.79257 8.80521 6.11588 9.09739L6.14663 9.12663L10.1689 13.1507V6.7888C10.1689 6.31629 10.541 5.93324 11 5.93324C11.4451 5.93324 11.8085 6.29343 11.8301 6.7461L11.8311 6.7888V13.1507L15.8534 9.12663C16.1654 8.81449 16.6583 8.81184 16.9734 9.11341L17.0033 9.14354C17.3065 9.46474 17.3091 9.97215 17.0162 10.2965L16.9869 10.3273L11 16.3167L5.01312 10.3273Z"
        fill="black"/>
</svg>
